<svg width="134" height="134" viewBox="0 0 134 134" xmlns="http://www.w3.org/2000/svg"><title>icon-txt-l</title><g fill="none" fill-rule="evenodd"><path d="M0 0h134v134H0z"/><path d="M11 1.998C11 .895 11.902 0 12.992 0h108.016c1.1 0 1.992.891 1.992 1.998v130.004a2.001 2.001 0 0 1-1.992 1.998H12.992c-1.1 0-1.992-.891-1.992-1.998V1.998z" fill="#E4E4E4"/><path d="M12 1.998A.996.996 0 0 1 13.002 1h107.996a1 1 0 0 1 1.002.998v129.004a.996.996 0 0 1-1.002.998H13.002a1 1 0 0 1-1.002-.998V1.998z" fill="#FFF"/><path d="M46 45h42v8H46v-8zm0 18h42v8H46v-8zm0 18h42v8H46v-8z" fill="#7C878E"/></g></svg>