<svg width="134" height="134" viewBox="0 0 134 134" xmlns="http://www.w3.org/2000/svg"><title>icon-xls-l</title><g fill="none" fill-rule="evenodd"><path d="M0 0h134v134H0z"/><path d="M21 1.998C21 .895 21.897 0 22.992 0h98.016c1.1 0 1.992.891 1.992 1.998v130.004a1.999 1.999 0 0 1-1.992 1.998H22.992c-1.1 0-1.992-.891-1.992-1.998V1.998z" fill="#E4E4E4"/><path d="M22 1.998A.999.999 0 0 1 23.006 1h97.988c.556 0 1.006.449 1.006.998v129.004a.999.999 0 0 1-1.006.998H23.006a1.003 1.003 0 0 1-1.006-.998V1.998z" fill="#FFF"/><path d="M84 39h23v10H84V39zm-27 0h23v10H57V39zm27 14h23v10H84V53zm-27 0h23v10H57V53zm27 14h23v10H84V67zm-27 0h23v10H57V67zm27 14h23v10H84V81zm-27 0h23v10H57V81zm27 14h23v10H84V95zm-27 0h23v10H57V95z" fill="#EEE"/><path d="M11.893 39.904l54-5.785a1 1 0 0 1 1.107.994v73.774a1 1 0 0 1-1.107.994l-54-5.785A1 1 0 0 1 11 103.1V40.9a1 1 0 0 1 .893-.995z" fill="#269758"/><path fill="#FFF" d="M37.176 66.05l6.918-11.177L52 54 41.13 72 52 90l-7.906-.873-6.918-11.177-5.27 9.65L24 86.727 33.224 72 24 57.273l7.906-.873z"/></g></svg>