<svg width="40" height="40" viewBox="0 0 40 40" xmlns="http://www.w3.org/2000/svg" xmlns:xlink="http://www.w3.org/1999/xlink"><title>ico_pptx_mini</title><defs><rect id="a" x="8" y="3" width="27" height="34" rx="1"/></defs><g fill="none" fill-rule="evenodd"><path d="M1 0h40v40H1z"/><g transform="translate(1)"><use fill="#FFF" xlink:href="#a"/><rect stroke="#E0E0E0" x="8.5" y="3.5" width="26" height="33" rx="1"/></g><path d="M24 12v5h5a5 5 0 1 1-5-5zm1-1a5 5 0 0 1 5 5h-5v-5zM13 24h19v2H13v-2zm0 4h19v2H13v-2z" fill="#E5E5E5"/><path d="M5.876 11.89l14-1.75a1 1 0 0 1 1.124.993v20.734a1 1 0 0 1-1.124.992l-14-1.75A1 1 0 0 1 5 30.117V12.883a1 1 0 0 1 .876-.992z" fill="#E8673A"/><path d="M9.96 16.649l3.5-.233c1.778-.119 3.22 1.413 3.22 3.422 0 2.008-1.442 3.602-3.22 3.56l-1.82-.042v3.26l-1.68-.111v-9.856zm1.581 1.572v3.356h1.927c.9 0 1.63-.787 1.63-1.757 0-.97-.73-1.724-1.63-1.684l-1.927.085z" fill="#FFF"/></g></svg>