<svg width="40" height="40" viewBox="0 0 40 40" xmlns="http://www.w3.org/2000/svg" xmlns:xlink="http://www.w3.org/1999/xlink"><title>ico_xlsx_mini</title><defs><rect id="a" x="8" y="3" width="27" height="34" rx="1"/></defs><g fill="none" fill-rule="evenodd"><path d="M0 0h40v40H0z"/><g><use fill="#FFF" xlink:href="#a"/><rect stroke="#E0E0E0" x="8.5" y="3.5" width="26" height="33" rx="1"/></g><path d="M25 12h6v3h-6v-3zm-7 0h6v3h-6v-3zm7 4h6v3h-6v-3zm-7 0h6v3h-6v-3zm7 4h6v3h-6v-3zm-7 0h6v3h-6v-3zm7 4h6v3h-6v-3zm-7 0h6v3h-6v-3zm7 4h6v3h-6v-3zm-7 0h6v3h-6v-3z" fill="#E5E5E5"/><path d="M5.876 11.89l14-1.75a1 1 0 0 1 1.124.993v20.734a1 1 0 0 1-1.124.992l-14-1.75A1 1 0 0 1 5 30.117V12.883a1 1 0 0 1 .876-.992z" fill="#269758"/><path fill="#FFF" d="M12.84 19.695l2.016-3.279 2.304-.256-3.168 5.28 3.168 5.28-2.304-.256-2.016-3.279-1.536 2.831L9 25.76l2.688-4.32L9 17.12l2.304-.256z"/></g></svg>