<svg width="134" height="134" viewBox="0 0 134 134" xmlns="http://www.w3.org/2000/svg"><title>icon-ppt-l</title><g fill="none" fill-rule="evenodd"><path d="M0 0h134v134H0z"/><path d="M21 1.998C21 .895 21.897 0 22.992 0h98.016c1.1 0 1.992.891 1.992 1.998v130.004a1.999 1.999 0 0 1-1.992 1.998H22.992c-1.1 0-1.992-.891-1.992-1.998V1.998z" fill="#E4E4E4"/><path d="M22 1.998A.999.999 0 0 1 23.006 1h97.988c.556 0 1.006.449 1.006.998v129.004a.999.999 0 0 1-1.006.998H23.006a1.003 1.003 0 0 1-1.006-.998V1.998z" fill="#FFF"/><path d="M36 83h75v5H36v-5zm0 13h75v5H36v-5zm45-61v20h20c0 11.046-8.954 20-20 20s-20-8.954-20-20 8.954-20 20-20zm4-4c11.046 0 20 8.954 20 20H85V31z" fill="#EEE"/><path d="M11.893 39.904l54-5.785a1 1 0 0 1 1.107.994v73.774a1 1 0 0 1-1.107.994l-54-5.785A1 1 0 0 1 11 103.1V40.9a1 1 0 0 1 .893-.995z" fill="#E8673A"/><path d="M27 54.822l11.98-.8C45.065 53.616 50 58.87 50 65.755c0 6.887-4.934 12.354-11.02 12.21l-6.23-.147V89L27 88.616V54.822zm5.412 5.391V71.72h6.595c3.083 0 5.581-2.697 5.581-6.024s-2.498-5.912-5.58-5.775l-6.596.293z" fill="#FFF"/></g></svg>