<svg width="100" height="80" viewBox="0 0 100 80" xmlns="http://www.w3.org/2000/svg" xmlns:xlink="http://www.w3.org/1999/xlink"><title>icon-file-l</title><defs><path d="M32 5h32a2 2 0 0 1 2 2v51a2 2 0 0 1-2 2H2a2 2 0 0 1-2-2V2a2 2 0 0 1 2-2h25.039A2 2 0 0 1 28.6.75L32 5z" id="a"/><path d="M32 5h32a2 2 0 0 1 2 2v49a2 2 0 0 1-2 2H2a2 2 0 0 1-2-2V2a2 2 0 0 1 2-2h25.039A2 2 0 0 1 28.6.75L32 5z" id="b"/></defs><g fill="none" fill-rule="evenodd"><path d="M0 0h100v80H0z"/><g transform="translate(17 9)"><use fill="#5C99E7" xlink:href="#a"/><mask id="c" fill="#fff"><use xlink:href="#b"/></mask><use fill="#6AABFF" xlink:href="#b"/><path fill="#4C94F0" mask="url(#c)" d="M0 0h66v13H0z"/></g></g></svg>