<svg width="24" height="24" viewBox="0 0 24 24" xmlns="http://www.w3.org/2000/svg"><title>icon-share</title><g fill="none" fill-rule="evenodd"><path d="M3 2h20v20H3z"/><path d="M15 11.857h-.647c-1.21 0-2.54.361-3.401.886-.86.524-1.15.896-1.15.896-.676.621-.98.424-.696-.462 0 0 .372-2.143 2.446-3.684.637-.473 1.156-.823 1.977-1.07.477-.136.971-.261 1.471-.34V5.973a.5.5 0 0 1 .79-.407l5.64 4.028a.5.5 0 0 1 0 .814l-5.64 4.028a.5.5 0 0 1-.79-.407v-2.17zM10 6v2H6v10h12v-2h2v3a1 1 0 0 1-1 1H5a1 1 0 0 1-1-1V7a1 1 0 0 1 1-1h5z" fill="#60686D"/></g></svg>