<svg width="24" height="24" viewBox="0 0 24 24" xmlns="http://www.w3.org/2000/svg"><title>navic/share_nor</title><g fill="none" fill-rule="evenodd"><path d="M0 0h24v24H0z"/><path d="M14 17.857h-.647c-1.21 0-2.54.361-3.401.886-.86.524-1.15.896-1.15.896-.676.621-.98.424-.696-.462 0 0 .372-2.143 2.446-3.684.637-.473 1.156-.823 1.977-1.07.477-.136.971-.261 1.471-.34v-2.111a.5.5 0 0 1 .79-.407l5.64 4.028a.5.5 0 0 1 0 .814l-5.64 4.028a.5.5 0 0 1-.79-.407v-2.17zm5-5.743l-3.848-2.749a2 2 0 0 0-3.162 1.621 132.124 132.124 0 0 1-.008 1.513c-1.012.305-1.66.673-2.623 1.389a8.542 8.542 0 0 0-2.865 3.742 6.894 6.894 0 0 0-.33 1.064c-.136.472-.17.911-.125 1.306H5a1 1 0 0 1-1-1V4a1 1 0 0 1 1-1h9.627a1 1 0 0 1 .711.297l3.373 3.415a1 1 0 0 1 .289.703v4.699z" fill="#7C878E"/></g></svg>