<svg width="24" height="24" viewBox="0 0 24 24" xmlns="http://www.w3.org/2000/svg"><title>navic/music_nor</title><g fill="none" fill-rule="evenodd"><path d="M0 0h24v24H0z"/><path d="M17 14.28V7.541a1 1 0 0 0-1.132-.991l-7 .933A1 1 0 0 0 8 8.476v10.803a1 1 0 0 1-.684.949l-4 1.333A1 1 0 0 1 2 20.613V17.72a1 1 0 0 1 .684-.949l1.632-.544A1 1 0 0 0 5 15.279V4.876a1 1 0 0 1 .868-.992l13-1.733A1 1 0 0 1 20 3.142V18.28a1 1 0 0 1-.684.949l-4 1.333A1 1 0 0 1 14 19.613V16.72a1 1 0 0 1 .684-.949l1.632-.544a1 1 0 0 0 .684-.949z" fill="#7C878E"/></g></svg>