<svg width="24" height="24" viewBox="0 0 24 24" xmlns="http://www.w3.org/2000/svg"><title>navic/photo_nor</title><g fill="none" fill-rule="evenodd"><path d="M0 0h24v24H0z"/><path d="M16.821 18.955c0 .23.232.618.697 1.162a.602.602 0 0 1 .017.722.379.379 0 0 1-.3.161h-2.47c-.228 0-.412-.229-.412-.511 0-.14.046-.275.128-.371.463-.545.694-.932.694-1.163h.001c.016-.613-.892-1.182-1.885-1.805C10.853 15.838 9 12.928 9 10.043 9 6.153 12.134 3 16 3s7 3.153 7 7.043c0 2.885-1.853 5.795-4.291 7.107-.993.623-1.901 1.192-1.885 1.805h-.003zM8.491 5.057A9.033 9.033 0 0 0 7 10.043c0 2.872 1.429 5.766 3.613 7.666-.46.434-.769.835-.69 1.19l-.386.063.384-.062c.039.201.32.505.847.91a.511.511 0 0 1 .137.628.354.354 0 0 1-.253.186l-2.31.372c-.212.034-.423-.138-.47-.385a.48.48 0 0 1 .057-.343c.34-.545.491-.919.452-1.12l.387-.063-.385.062c-.089-.537-1.033-.897-2.066-1.292-2.5-.778-4.723-3.04-5.21-5.56-.655-3.397 1.744-6.622 5.358-7.204a7.075 7.075 0 0 1 2.026-.034z" fill="#7C878E"/></g></svg>