<svg width="24" height="24" viewBox="0 0 24 24" xmlns="http://www.w3.org/2000/svg"><title>navic/group_nor</title><g fill="none" fill-rule="evenodd"><path d="M0 0h24v24H0z"/><path d="M12.74 11.643l-.03.04c-.526.675-.48 1.693.439 2.415.911.717 2.056 1.501 2.92 2.052 1.082.69 1.491 1.533 1.468 2.254C17.51 19.295 16.82 20 15.92 20H4.08c-.9 0-1.589-.705-1.617-1.596-.023-.721.386-1.564 1.467-2.254a39.163 39.163 0 0 0 2.921-2.052c.918-.722.965-1.74.439-2.416a1.833 1.833 0 0 1-.03-.039C6.484 10.731 6 9.436 6 8c0-2.761 1.79-5 4-5s4 2.239 4 5c0 1.436-.484 2.731-1.26 3.643zM19.523 18c-.122-1.377-.976-2.641-2.378-3.536a37.76 37.76 0 0 1-2.632-1.838C15.47 11.356 16 9.72 16 8c0-1.826-.6-3.52-1.608-4.785.344-.14.71-.215 1.091-.215 1.95 0 3.53 1.975 3.53 4.412 0 1.267-.61 2.833-1.077 3.477-.446.613-.581.967.23 1.604.803.633 1.964 1.513 2.705 2.053.92.671 1.15 1.41 1.129 2.046-.025.786-.5 1.408-1.294 1.408h-1.183z" fill="#7C878E"/></g></svg>