<svg width="24" height="24" viewBox="0 0 24 24" xmlns="http://www.w3.org/2000/svg"><title>navic/doc_select</title><g fill="none" fill-rule="evenodd"><path d="M0 0h24v24H0z"/><path d="M19.283 10.538l1.321.666a.8.8 0 0 1 0 1.429l-8.132 4.097a1 1 0 0 1-.9 0L3.44 12.633a.8.8 0 0 1 0-1.429l1.322-.666 6.81 3.431a1 1 0 0 0 .9 0l6.81-3.43zm0 5l1.321.666a.8.8 0 0 1 0 1.429l-8.132 4.097a1 1 0 0 1-.9 0L3.44 17.633a.8.8 0 0 1 0-1.429l1.322-.666 6.81 3.431a1 1 0 0 0 .9 0l6.81-3.43zm-6.81-13.431l8.131 4.097a.8.8 0 0 1 0 1.429l-8.132 4.097a1 1 0 0 1-.9 0L3.44 7.633a.8.8 0 0 1 0-1.429l8.132-4.097a1 1 0 0 1 .9 0z" fill="#2980FF"/></g></svg>