<svg width="159" height="36" viewBox="0 0 159 36" xmlns="http://www.w3.org/2000/svg"><title>logo-v2</title><g fill="none" fill-rule="evenodd"><path d="M0 0h160v36H0z"/><g fill="#000"><path d="M56.069 21.998c0 3.825-.31 6.73-.946 9.304-.068.237.005.302.13.302h2.11c.704-3.535.795-6.468.808-8.596h2.949v6.541h-2.094c-.103 0-.182.067-.128.212l.577 1.892h3.745V7.086h-7.151v14.912zm2.104-.884h2.947V16.08h-2.947v5.035zm0-6.928h2.947V9.19h-2.947v4.996zM76.169 15.614h2.825v-1.893h-8.23c.247-.605.471-1.254.675-1.957h7.038V9.871h-2.061l.771-2.631c.041-.14-.033-.195-.123-.195h-1.792l-.83 2.826h-2.531c.236-1.095.442-2.308.629-3.668.021-.158-.064-.19-.168-.19h-2.04c-.207 1.447-.426 2.693-.705 3.858h-1.242l-.83-2.826h-1.792c-.09 0-.164.055-.122.195l.772 2.63h-2.009v1.894h4.69c-.191.599-.471 1.302-.77 1.957h-4.435v1.893h3.331c-1.343 1.908-2.779 2.785-3.351 3.135v2.166c0 .109.086.225.428.031a19.255 19.255 0 0 0 1.96-1.25h7.837l-.067 2.836h-6.186l.094-1.696a.124.124 0 0 0-.129-.128h-1.978l-.2 3.59c0 .072.054.127.13.127H76.43v5.12h-4.81c-.102 0-.181.067-.128.212l.576 1.892h6.676v-9.117h-2.613l.086-3.682a15.248 15.248 0 0 0 2.87 2.096c.343.194.429.078.429-.03v-2.167c-.572-.35-2.006-1.23-3.348-3.135zm-2.575 0a15.354 15.354 0 0 0 1.606 2.189h-6.887a13.366 13.366 0 0 0 1.534-2.189h3.747zM104.219 7.033h-14.54v2.316h4.377v7.459H89.04V19.1h5.016v12.675h2.314V19.1h5.534v12.404h4.37v-2.314h-2.055V7.033zm-7.85 9.775h5.535v-7.46H96.37v7.46z"/><path d="M91.146 24.429l-3.903 2.957V13.708h-5.406v2.315h3.107v13.105c-.74.561-1.243.94-1.243.94l1.27 1.679 6.383-4.836v-2.384c0-.114-.125-.161-.208-.098M85.25 11.636h2.53c.112 0 .157-.121.107-.197l-3.19-4.872h-2.53c-.095 0-.164.11-.112.191l3.195 4.878M63.885 27.996h11.472v-2.104H63.885zM138.154 9.905h18.275V7.589h-18.275zM144.782 18.656h14.221V16.34H135.58v2.316h6.498l-4.733 12.433c-.037.103.03.179.119.179h20.203c.096 0 .15-.094.117-.184-.022-.055-3.013-7.92-3.013-7.92h-2.515a.128.128 0 0 0-.12.176l2.131 5.612h-13.396l3.911-10.296zM123.938 7.59h-2v5.365h-1.378V6.037h-2v6.918h-1.377V7.59h-2v7.258h8.755zM114.548 13.403h-2.093c-.83 1.905-2.207 4.694-4.01 7.8a.13.13 0 0 0 .11.197h2.204c.223-.393.439-.78.648-1.162v11.547h2.105v-15.64c.471-.984.86-1.851 1.154-2.56a.131.131 0 0 0-.118-.182M115.158 18.229h8.784v-1.895h-8.784zM123.872 25.483v-5.66h-8.232v3.117c0 2.166-.105 4.561-1.265 7.933-.029.084.03.162.124.162h2.042c1.1-3.398 1.204-5.86 1.204-8.095v-1.223h4.022v5.447l-.884.706 1.183 1.48 3.75-2.994v-2.157c0-.111-.13-.165-.213-.099l-1.73 1.383"/><path d="M127.571 11.095h2.69l-.012.273c-.146 3.544-.314 7.557-1.518 11.159-1.104-3.507-1.157-7.491-1.16-11.432m2.343 14.23c2.045-4.364 2.256-9.456 2.439-13.87l.015-.36h.859V9.2h-6.021c.042-.136.608-1.976.887-2.86a.13.13 0 0 0-.122-.171h-2.031c-.185.589-1.107 3.583-1.477 4.769-.026.081.052.157.125.157h.878c.003 4.757.083 9.854 2.072 14.195a13.187 13.187 0 0 1-3.394 4.042v2.344c0 .103.116.162.204.105a15.183 15.183 0 0 0 4.382-4.346c1.093 1.644 2.55 3.133 4.497 4.393.1.065.2-.019.2-.106v-2.326a12.94 12.94 0 0 1-3.513-4.072M111.042 13.973c1.754-3.012 3.07-5.69 3.844-7.494a.132.132 0 0 0-.118-.185h-2.331c-.86 1.902-2.21 4.554-3.967 7.481-.056.092.006.198.106.198h2.466z"/></g><path d="M34.877 31.743c.387-.316.761-.647 1.12-.996 3.396-3.303 5.267-7.83 5.267-12.747 0-.512-.02-1.018-.058-1.519a8.567 8.567 0 0 1 3.225 6.696c0 5.052-3.636 8.277-9.554 8.566zm-18.799.023c-3.904 0-7.05-.944-9.095-2.729-1.794-1.565-2.742-3.79-2.742-6.433 0-2.795.992-5.222 2.794-6.833 1.393-1.246 3.157-1.908 5.041-1.908.298 0 .6.017.902.05 2.238.247 3.977 1.307 4.772 2.91.584 1.176.552 2.46-.088 3.524-.497.827-1.174 1.337-2.011 1.516-.967.206-2.142-.043-2.993-.635L10.535 24.9c1.777 1.119 3.993 1.532 6.002 1.103 2.004-.427 3.65-1.63 4.76-3.476 1.379-2.29 1.473-5.125.253-7.584-1.3-2.622-3.815-4.429-6.994-5.067a9.081 9.081 0 0 1 2.174-2.973c1.895-1.721 4.558-2.669 7.498-2.669 3.502 0 6.736 1.41 9.107 3.972 2.378 2.57 3.688 6.048 3.688 9.794 0 3.765-1.416 7.215-3.986 9.715-2.725 2.65-6.478 4.05-10.853 4.05h-6.106zM39.991 11.05C37.466 4.503 31.436 0 24.228 0c-3.998 0-7.674 1.339-10.352 3.77a13.444 13.444 0 0 0-3.805 6.022 11.634 11.634 0 0 0-5.865 2.825C1.494 15.042 0 18.589 0 22.604c0 3.9 1.45 7.228 4.192 9.621C7.022 34.695 11.132 36 16.078 36h6.106l.09-.001V36H34c8.776 0 14.672-5.153 14.672-12.823 0-5.616-3.636-10.397-8.681-12.127z" fill="#2980FF"/></g></svg>